# xmcd
#
# Track frame offsets: 
#        150
#        17525
#        34500
#        69075
#        103975
#        163095
#        201887
#        232860
#
# Disc length: 3544 seconds
#
# Revision: 0
# Processed by: cddbd v1.5.2PL0 Copyright (c) Steve Scherf et al.
# Submitted via: ExactAudioCopy v0.99pb4
#
DISCID=5a0dd608
DTITLE=Eric Clapton - Unautorised - Live Vol.1
DYEAR=1900
DGENRE=Blues
TTITLE0=Hello Old Friend
TTITLE1=Sign Language
TTITLE2=Badge
TTITLE3=Wonerful Tonight
TTITLE4=Tell The Truth
TTITLE5=Layla
TTITLE6=I Shot The Sheriff
TTITLE7=Tearing Us Apart
EXTD=
EXTT0=
EXTT1=
EXTT2=
EXTT3=
EXTT4=
EXTT5=
EXTT6=
EXTT7=
PLAYORDER=
